<?xml version="1.0" encoding="UTF-8" standalone="no"?>
<svg
   xmlns:dc="http://purl.org/dc/elements/1.1/"
   xmlns:cc="http://creativecommons.org/ns#"
   xmlns:rdf="http://www.w3.org/1999/02/22-rdf-syntax-ns#"
   xmlns:svg="http://www.w3.org/2000/svg"
   xmlns="http://www.w3.org/2000/svg"
   xmlns:sodipodi="http://sodipodi.sourceforge.net/DTD/sodipodi-0.dtd"
   xmlns:inkscape="http://www.inkscape.org/namespaces/inkscape"
   height="24px"
   id="Layer_1"
   version="1.2"
   viewBox="0 0 24 24"
   width="24px"
   xml:space="preserve"
   sodipodi:docname="warning-white.svg"
   inkscape:version="0.92.3 (2405546, 2018-03-11)"><metadata
     id="metadata19"><rdf:RDF><cc:Work
         rdf:about=""><dc:format>image/svg+xml</dc:format><dc:type
           rdf:resource="http://purl.org/dc/dcmitype/StillImage" /><dc:title></dc:title></cc:Work></rdf:RDF></metadata><defs
     id="defs17" /><sodipodi:namedview
     pagecolor="#ffffff"
     bordercolor="#666666"
     borderopacity="1"
     objecttolerance="10"
     gridtolerance="10"
     guidetolerance="10"
     inkscape:pageopacity="0"
     inkscape:pageshadow="2"
     inkscape:window-width="1544"
     inkscape:window-height="1071"
     id="namedview15"
     showgrid="false"
     inkscape:zoom="9.8333333"
     inkscape:cx="-18.711864"
     inkscape:cy="12"
     inkscape:window-x="161"
     inkscape:window-y="29"
     inkscape:window-maximized="0"
     inkscape:current-layer="Layer_1" /><g
     id="g4"
     style="fill:#ffffff"><path
       d="M12,5.511c0.561,0,1.119,0.354,1.544,1.062l5.912,9.854C20.307,17.842,19.65,19,18,19H6c-1.65,0-2.307-1.159-1.456-2.573   l5.912-9.854C10.881,5.865,11.439,5.511,12,5.511 M12,3.511c-1.296,0-2.482,0.74-3.259,2.031l-5.912,9.856   c-0.786,1.309-0.872,2.705-0.235,3.83S4.473,21,6,21h12c1.527,0,2.77-0.646,3.406-1.771s0.551-2.521-0.235-3.83l-5.912-9.854   C14.482,4.251,13.296,3.511,12,3.511z"
       id="path2"
       style="stroke:#ffffff;stroke-opacity:1;fill:#ffffff" /></g><g
     id="g8"
     style="fill:#ffffff"><circle
       cx="12"
       cy="15.898305"
       r="1.3"
       id="circle6"
       style="fill:#ffffff" /></g><g
     id="g12"
     style="fill:#ffffff"><path
       d="M13.5,10c0-0.83-0.671-1.5-1.5-1.5s-1.5,0.67-1.5,1.5c0,0.199,0.041,0.389,0.111,0.562C11.165,11.938,12,14,12,14   s0.835-2.062,1.391-3.438C13.459,10.389,13.5,10.199,13.5,10z"
       id="path10"
       style="fill:#ffffff;fill-opacity:1" /></g></svg>